<svg width="197" height="125" viewBox="0 0 197 125" fill="none" xmlns="http://www.w3.org/2000/svg">
<ellipse opacity="0.6" cx="98.5" cy="102" rx="98.5" ry="23" fill="#DCF3FF"/>
<circle cx="91" cy="63" r="26" fill="white"/>
<mask id="path-3-inside-1" fill="white">
<path fill-rule="evenodd" clip-rule="evenodd" d="M114.432 92.9175C107.976 97.9809 99.8408 101 91 101C70.0132 101 53 83.9868 53 63C53 42.0132 70.0132 25 91 25C111.987 25 129 42.0132 129 63C129 70.8129 126.642 78.0751 122.599 84.1139L141.648 103.163C143.991 105.506 143.991 109.305 141.648 111.648C139.305 113.991 135.506 113.991 133.163 111.648L114.432 92.9175ZM117 63C117 77.3594 105.359 89 91 89C76.6406 89 65 77.3594 65 63C65 48.6406 76.6406 37 91 37C105.359 37 117 48.6406 117 63Z"/>
</mask>
<path fill-rule="evenodd" clip-rule="evenodd" d="M114.432 92.9175C107.976 97.9809 99.8408 101 91 101C70.0132 101 53 83.9868 53 63C53 42.0132 70.0132 25 91 25C111.987 25 129 42.0132 129 63C129 70.8129 126.642 78.0751 122.599 84.1139L141.648 103.163C143.991 105.506 143.991 109.305 141.648 111.648C139.305 113.991 135.506 113.991 133.163 111.648L114.432 92.9175ZM117 63C117 77.3594 105.359 89 91 89C76.6406 89 65 77.3594 65 63C65 48.6406 76.6406 37 91 37C105.359 37 117 48.6406 117 63Z" fill="#DCF3FF"/>
<path d="M114.432 92.9175L116.554 90.7962L114.673 88.9158L112.581 90.5569L114.432 92.9175ZM122.599 84.1139L120.106 82.4449L118.735 84.4927L120.478 86.2352L122.599 84.1139ZM133.163 111.648L131.042 113.77L133.163 111.648ZM91 104C100.536 104 109.319 100.741 116.284 95.278L112.581 90.5569C106.634 95.2208 99.1459 98 91 98V104ZM50 63C50 85.6437 68.3563 104 91 104V98C71.67 98 56 82.33 56 63H50ZM91 22C68.3563 22 50 40.3563 50 63H56C56 43.67 71.67 28 91 28V22ZM132 63C132 40.3563 113.644 22 91 22V28C110.33 28 126 43.67 126 63H132ZM125.092 85.7829C129.455 79.2657 132 71.4255 132 63H126C126 70.2004 123.829 76.8846 120.106 82.4449L125.092 85.7829ZM120.478 86.2352L139.527 105.284L143.77 101.042L124.72 81.9926L120.478 86.2352ZM139.527 105.284C140.698 106.456 140.698 108.355 139.527 109.527L143.77 113.77C147.284 110.255 147.284 104.556 143.77 101.042L139.527 105.284ZM139.527 109.527C138.355 110.698 136.456 110.698 135.284 109.527L131.042 113.77C134.556 117.284 140.255 117.284 143.77 113.77L139.527 109.527ZM135.284 109.527L116.554 90.7962L112.311 95.0388L131.042 113.77L135.284 109.527ZM91 92C107.016 92 120 79.0163 120 63H114C114 75.7025 103.703 86 91 86V92ZM62 63C62 79.0163 74.9837 92 91 92V86C78.2975 86 68 75.7025 68 63H62ZM91 34C74.9837 34 62 46.9837 62 63H68C68 50.2975 78.2975 40 91 40V34ZM120 63C120 46.9837 107.016 34 91 34V40C103.703 40 114 50.2975 114 63H120Z" fill="#06A6FD" mask="url(#path-3-inside-1)"/>
<circle cx="80" cy="64" r="3" fill="#06A6FD"/>
<circle cx="102" cy="64" r="3" fill="#06A6FD"/>
<ellipse cx="91" cy="72" rx="5" ry="3" fill="#06A6FD"/>
<rect x="74" y="59" width="6" height="2" rx="1" transform="rotate(-30 74 59)" fill="#06A6FD"/>
<rect width="6" height="2" rx="1" transform="matrix(-0.866025 -0.5 -0.5 0.866025 107.196 59)" fill="#06A6FD"/>
<rect width="3" height="16" rx="1.5" transform="matrix(-0.782215 -0.623009 -0.623009 0.782215 133.615 7.6062)" fill="#5DC5FE"/>
<rect width="3" height="16" rx="1.5" transform="matrix(-0.112575 -0.993643 -0.993643 0.112575 143.412 26.1526)" fill="#5DC5FE"/>
<rect width="3" height="16" rx="1.5" transform="matrix(-0.993643 0.112575 0.112575 0.993643 113.981 0)" fill="#5DC5FE"/>
</svg>
